<svg version="1.1" viewBox="0.0 0.0 50.0 50.0" fill="none" stroke="none" stroke-linecap="square" stroke-miterlimit="10" xmlns:xlink="http://www.w3.org/1999/xlink" xmlns="http://www.w3.org/2000/svg"><clipPath id="p.0"><path d="m0 0l50.0 0l0 50.0l-50.0 0l0 -50.0z" clip-rule="nonzero"/></clipPath><g clip-path="url(#p.0)"><path fill="#000000" d="m0 0l50.0 0l0 50.0l-50.0 0z" fill-rule="evenodd"/><path fill="#ffffff" d="m7.2834644 24.58737l0 0c0 -1.3868847 1.1242914 -2.5111752 2.5111752 -2.5111752l30.41072 0c0.6660042 0 1.3047333 0.26457024 1.7756691 0.73550606c0.47093582 0.47093582 0.73550415 1.109663 0.73550415 1.7756691l0 0.20599556l0 0c0 1.3868847 -1.1242905 2.5111752 -2.5111732 2.5111752l-30.41072 0c-1.3868837 0 -2.5111752 -1.1242905 -2.5111752 -2.5111752z" fill-rule="evenodd"/><path fill="#ffffff" d="m7.2834644 13.460983l0 0c0 -1.3868828 1.1242914 -2.5111742 2.5111752 -2.5111742l30.41072 0c0.6660042 0 1.3047333 0.26456928 1.7756691 0.73550606c0.47093582 0.47093678 0.73550415 1.109664 0.73550415 1.7756681l0 0.20599747l0 0c0 1.3868837 -1.1242905 2.5111752 -2.5111732 2.5111752l-30.41072 0c-1.3868837 0 -2.5111752 -1.1242914 -2.5111752 -2.5111752z" fill-rule="evenodd"/><path fill="#ffffff" d="m7.2834644 35.713135l0 0c0 -1.3868866 1.1242914 -2.511177 2.5111752 -2.511177l30.41072 0c0.6660042 0 1.3047333 0.26457214 1.7756691 0.73550797c0.47093582 0.47093582 0.73550415 1.1096611 0.73550415 1.7756691l0 0.20599747l0 0c0 1.3868828 -1.1242905 2.5111732 -2.5111732 2.5111732l-30.41072 0c-1.3868837 0 -2.5111752 -1.1242905 -2.5111752 -2.5111732z" fill-rule="evenodd"/></g></svg>